<?xml version="1.0" standalone="no"?>
<svg xmlns:xlink="http://www.w3.org/1999/xlink" id="wave" style="transform:rotate(180deg); transition: 0.3s" viewBox="0 0 1440 240" version="1.1" xmlns="http://www.w3.org/2000/svg"><defs><linearGradient id="sw-gradient-0" x1="0" x2="0" y1="1" y2="0"><stop stop-color="rgba(255, 249, 234, 1)" offset="0%"/><stop stop-color="rgba(255, 249, 234, 1)" offset="100%"/></linearGradient></defs><path style="transform:translate(0, 0px); opacity:1" fill="url(#sw-gradient-0)" d="M0,48L30,52C60,56,120,64,180,60C240,56,300,40,360,32C420,24,480,24,540,36C600,48,660,72,720,84C780,96,840,96,900,92C960,88,1020,80,1080,92C1140,104,1200,136,1260,140C1320,144,1380,120,1440,96C1500,72,1560,48,1620,56C1680,64,1740,104,1800,104C1860,104,1920,64,1980,76C2040,88,2100,152,2160,156C2220,160,2280,104,2340,72C2400,40,2460,32,2520,60C2580,88,2640,152,2700,184C2760,216,2820,216,2880,192C2940,168,3000,120,3060,112C3120,104,3180,136,3240,132C3300,128,3360,88,3420,96C3480,104,3540,160,3600,176C3660,192,3720,168,3780,132C3840,96,3900,48,3960,24C4020,0,4080,0,4140,20C4200,40,4260,80,4290,100L4320,120L4320,240L4290,240C4260,240,4200,240,4140,240C4080,240,4020,240,3960,240C3900,240,3840,240,3780,240C3720,240,3660,240,3600,240C3540,240,3480,240,3420,240C3360,240,3300,240,3240,240C3180,240,3120,240,3060,240C3000,240,2940,240,2880,240C2820,240,2760,240,2700,240C2640,240,2580,240,2520,240C2460,240,2400,240,2340,240C2280,240,2220,240,2160,240C2100,240,2040,240,1980,240C1920,240,1860,240,1800,240C1740,240,1680,240,1620,240C1560,240,1500,240,1440,240C1380,240,1320,240,1260,240C1200,240,1140,240,1080,240C1020,240,960,240,900,240C840,240,780,240,720,240C660,240,600,240,540,240C480,240,420,240,360,240C300,240,240,240,180,240C120,240,60,240,30,240L0,240Z"/></svg>